<svg width="415" height="319" viewBox="0 0 415 319" fill="none" xmlns="http://www.w3.org/2000/svg">
<rect x="145" width="121" height="122" rx="20" fill="black"/>
<path d="M170.695 138.069H172.743L173.569 135.046H171.53L171.803 134.026H173.842L174.888 130.089H176.197L175.134 134.026H177.076L178.157 130.089H179.449L178.386 134.026H180.425L180.152 135.046H178.113L177.278 138.069H179.326L179.054 139.089H177.032L175.951 143H174.659L175.723 139.089H173.763L172.717 143H171.407L172.471 139.089H170.432L170.695 138.069ZM175.969 138.069L176.804 135.046H174.861L174.053 138.069H175.969ZM185.32 130.414C186.949 130.414 188.127 131.085 188.854 132.427C189.416 133.464 189.697 134.885 189.697 136.689C189.697 138.4 189.442 139.815 188.933 140.935C188.194 142.54 186.987 143.343 185.312 143.343C183.8 143.343 182.675 142.687 181.937 141.374C181.321 140.278 181.014 138.808 181.014 136.962C181.014 135.532 181.198 134.305 181.567 133.279C182.259 131.369 183.51 130.414 185.32 130.414ZM185.303 141.901C186.123 141.901 186.776 141.538 187.263 140.812C187.749 140.085 187.992 138.731 187.992 136.751C187.992 135.321 187.816 134.146 187.465 133.227C187.113 132.301 186.431 131.838 185.417 131.838C184.485 131.838 183.803 132.277 183.369 133.156C182.941 134.029 182.728 135.318 182.728 137.023C182.728 138.307 182.865 139.338 183.141 140.117C183.562 141.307 184.283 141.901 185.303 141.901ZM195.34 130.414C196.969 130.414 198.146 131.085 198.873 132.427C199.436 133.464 199.717 134.885 199.717 136.689C199.717 138.4 199.462 139.815 198.952 140.935C198.214 142.54 197.007 143.343 195.331 143.343C193.819 143.343 192.694 142.687 191.956 141.374C191.341 140.278 191.033 138.808 191.033 136.962C191.033 135.532 191.218 134.305 191.587 133.279C192.278 131.369 193.529 130.414 195.34 130.414ZM195.322 141.901C196.143 141.901 196.796 141.538 197.282 140.812C197.769 140.085 198.012 138.731 198.012 136.751C198.012 135.321 197.836 134.146 197.484 133.227C197.133 132.301 196.45 131.838 195.437 131.838C194.505 131.838 193.822 132.277 193.389 133.156C192.961 134.029 192.747 135.318 192.747 137.023C192.747 138.307 192.885 139.338 193.16 140.117C193.582 141.307 194.303 141.901 195.322 141.901ZM205.359 130.414C206.988 130.414 208.166 131.085 208.893 132.427C209.455 133.464 209.736 134.885 209.736 136.689C209.736 138.4 209.481 139.815 208.972 140.935C208.233 142.54 207.026 143.343 205.351 143.343C203.839 143.343 202.714 142.687 201.976 141.374C201.36 140.278 201.053 138.808 201.053 136.962C201.053 135.532 201.237 134.305 201.606 133.279C202.298 131.369 203.549 130.414 205.359 130.414ZM205.342 141.901C206.162 141.901 206.815 141.538 207.302 140.812C207.788 140.085 208.031 138.731 208.031 136.751C208.031 135.321 207.855 134.146 207.504 133.227C207.152 132.301 206.47 131.838 205.456 131.838C204.524 131.838 203.842 132.277 203.408 133.156C202.98 134.029 202.767 135.318 202.767 137.023C202.767 138.307 202.904 139.338 203.18 140.117C203.602 141.307 204.322 141.901 205.342 141.901ZM215.379 130.414C217.008 130.414 218.186 131.085 218.912 132.427C219.475 133.464 219.756 134.885 219.756 136.689C219.756 138.4 219.501 139.815 218.991 140.935C218.253 142.54 217.046 143.343 215.37 143.343C213.858 143.343 212.733 142.687 211.995 141.374C211.38 140.278 211.072 138.808 211.072 136.962C211.072 135.532 211.257 134.305 211.626 133.279C212.317 131.369 213.568 130.414 215.379 130.414ZM215.361 141.901C216.182 141.901 216.835 141.538 217.321 140.812C217.808 140.085 218.051 138.731 218.051 136.751C218.051 135.321 217.875 134.146 217.523 133.227C217.172 132.301 216.489 131.838 215.476 131.838C214.544 131.838 213.861 132.277 213.428 133.156C213 134.029 212.786 135.318 212.786 137.023C212.786 138.307 212.924 139.338 213.199 140.117C213.621 141.307 214.342 141.901 215.361 141.901ZM225.398 130.414C227.027 130.414 228.205 131.085 228.932 132.427C229.494 133.464 229.775 134.885 229.775 136.689C229.775 138.4 229.521 139.815 229.011 140.935C228.272 142.54 227.065 143.343 225.39 143.343C223.878 143.343 222.753 142.687 222.015 141.374C221.399 140.278 221.092 138.808 221.092 136.962C221.092 135.532 221.276 134.305 221.646 133.279C222.337 131.369 223.588 130.414 225.398 130.414ZM225.381 141.901C226.201 141.901 226.854 141.538 227.341 140.812C227.827 140.085 228.07 138.731 228.07 136.751C228.07 135.321 227.895 134.146 227.543 133.227C227.191 132.301 226.509 131.838 225.495 131.838C224.563 131.838 223.881 132.277 223.447 133.156C223.02 134.029 222.806 135.318 222.806 137.023C222.806 138.307 222.943 139.338 223.219 140.117C223.641 141.307 224.361 141.901 225.381 141.901ZM235.418 130.414C237.047 130.414 238.225 131.085 238.951 132.427C239.514 133.464 239.795 134.885 239.795 136.689C239.795 138.4 239.54 139.815 239.03 140.935C238.292 142.54 237.085 143.343 235.409 143.343C233.897 143.343 232.772 142.687 232.034 141.374C231.419 140.278 231.111 138.808 231.111 136.962C231.111 135.532 231.296 134.305 231.665 133.279C232.356 131.369 233.607 130.414 235.418 130.414ZM235.4 141.901C236.221 141.901 236.874 141.538 237.36 140.812C237.847 140.085 238.09 138.731 238.09 136.751C238.09 135.321 237.914 134.146 237.562 133.227C237.211 132.301 236.528 131.838 235.515 131.838C234.583 131.838 233.9 132.277 233.467 133.156C233.039 134.029 232.825 135.318 232.825 137.023C232.825 138.307 232.963 139.338 233.238 140.117C233.66 141.307 234.381 141.901 235.4 141.901Z" fill="black"/>
<rect x="145" y="171" width="121" height="122" rx="20" fill="white"/>
<path d="M186.516 309.069H188.563L189.39 306.046H187.351L187.623 305.026H189.662L190.708 301.089H192.018L190.954 305.026H192.896L193.978 301.089H195.27L194.206 305.026H196.245L195.973 306.046H193.934L193.099 309.069H195.146L194.874 310.089H192.853L191.771 314H190.479L191.543 310.089H189.583L188.537 314H187.228L188.291 310.089H186.252L186.516 309.069ZM191.789 309.069L192.624 306.046H190.682L189.873 309.069H191.789ZM197.827 303.154C197.851 302.498 197.965 302.018 198.17 301.713C198.539 301.174 199.251 300.904 200.306 300.904C200.405 300.904 200.508 300.907 200.613 300.913C200.719 300.919 200.839 300.928 200.974 300.939V302.381C200.81 302.369 200.689 302.363 200.613 302.363C200.543 302.357 200.476 302.354 200.411 302.354C199.931 302.354 199.644 302.48 199.55 302.732C199.456 302.979 199.409 303.611 199.409 304.631H200.974V305.879H199.392V314H197.827V305.879H196.518V304.631H197.827V303.154ZM202.521 303.154C202.544 302.498 202.658 302.018 202.863 301.713C203.232 301.174 203.944 300.904 204.999 300.904C205.099 300.904 205.201 300.907 205.307 300.913C205.412 300.919 205.532 300.928 205.667 300.939V302.381C205.503 302.369 205.383 302.363 205.307 302.363C205.236 302.357 205.169 302.354 205.104 302.354C204.624 302.354 204.337 302.48 204.243 302.732C204.149 302.979 204.103 303.611 204.103 304.631H205.667V305.879H204.085V314H202.521V305.879H201.211V304.631H202.521V303.154ZM207.214 303.154C207.237 302.498 207.352 302.018 207.557 301.713C207.926 301.174 208.638 300.904 209.692 300.904C209.792 300.904 209.895 300.907 210 300.913C210.105 300.919 210.226 300.928 210.36 300.939V302.381C210.196 302.369 210.076 302.363 210 302.363C209.93 302.357 209.862 302.354 209.798 302.354C209.317 302.354 209.03 302.48 208.937 302.732C208.843 302.979 208.796 303.611 208.796 304.631H210.36V305.879H208.778V314H207.214V305.879H205.904V304.631H207.214V303.154ZM211.907 303.154C211.931 302.498 212.045 302.018 212.25 301.713C212.619 301.174 213.331 300.904 214.386 300.904C214.485 300.904 214.588 300.907 214.693 300.913C214.799 300.919 214.919 300.928 215.054 300.939V302.381C214.89 302.369 214.77 302.363 214.693 302.363C214.623 302.357 214.556 302.354 214.491 302.354C214.011 302.354 213.724 302.48 213.63 302.732C213.536 302.979 213.489 303.611 213.489 304.631H215.054V305.879H213.472V314H211.907V305.879H210.598V304.631H211.907V303.154ZM216.601 303.154C216.624 302.498 216.738 302.018 216.943 301.713C217.312 301.174 218.024 300.904 219.079 300.904C219.179 300.904 219.281 300.907 219.387 300.913C219.492 300.919 219.612 300.928 219.747 300.939V302.381C219.583 302.369 219.463 302.363 219.387 302.363C219.316 302.357 219.249 302.354 219.185 302.354C218.704 302.354 218.417 302.48 218.323 302.732C218.229 302.979 218.183 303.611 218.183 304.631H219.747V305.879H218.165V314H216.601V305.879H215.291V304.631H216.601V303.154ZM221.294 303.154C221.317 302.498 221.432 302.018 221.637 301.713C222.006 301.174 222.718 300.904 223.772 300.904C223.872 300.904 223.975 300.907 224.08 300.913C224.186 300.919 224.306 300.928 224.44 300.939V302.381C224.276 302.369 224.156 302.363 224.08 302.363C224.01 302.357 223.942 302.354 223.878 302.354C223.397 302.354 223.11 302.48 223.017 302.732C222.923 302.979 222.876 303.611 222.876 304.631H224.44V305.879H222.858V314H221.294V305.879H219.984V304.631H221.294V303.154Z" fill="white"/>
<rect x="294" y="172" width="121" height="122" rx="20" fill="#8F90A6"/>
<path d="M322.7 310.069H324.748L325.574 307.046H323.535L323.808 306.026H325.847L326.893 302.089H328.202L327.139 306.026H329.081L330.162 302.089H331.454L330.391 306.026H332.43L332.157 307.046H330.118L329.283 310.069H331.331L331.059 311.089H329.037L327.956 315H326.664L327.728 311.089H325.768L324.722 315H323.412L324.476 311.089H322.437L322.7 310.069ZM327.974 310.069L328.809 307.046H326.866L326.058 310.069H327.974ZM337.352 307.688C338.049 307.688 338.594 307.494 338.986 307.107C339.379 306.715 339.575 306.249 339.575 305.71C339.575 305.241 339.388 304.811 339.013 304.418C338.638 304.025 338.066 303.829 337.299 303.829C336.537 303.829 335.986 304.025 335.646 304.418C335.307 304.811 335.137 305.271 335.137 305.798C335.137 306.39 335.356 306.853 335.796 307.187C336.235 307.521 336.754 307.688 337.352 307.688ZM337.448 313.919C338.181 313.919 338.787 313.723 339.268 313.33C339.754 312.932 339.997 312.34 339.997 311.555C339.997 310.74 339.748 310.122 339.25 309.7C338.752 309.278 338.113 309.067 337.334 309.067C336.578 309.067 335.96 309.284 335.479 309.718C335.005 310.146 334.768 310.74 334.768 311.502C334.768 312.158 334.984 312.727 335.418 313.207C335.857 313.682 336.534 313.919 337.448 313.919ZM335.198 308.294C334.759 308.106 334.416 307.887 334.17 307.635C333.707 307.166 333.476 306.557 333.476 305.807C333.476 304.869 333.815 304.063 334.495 303.39C335.175 302.716 336.139 302.379 337.387 302.379C338.594 302.379 339.54 302.698 340.226 303.337C340.911 303.97 341.254 304.711 341.254 305.561C341.254 306.346 341.055 306.981 340.656 307.468C340.434 307.743 340.088 308.013 339.619 308.276C340.141 308.517 340.551 308.792 340.85 309.103C341.406 309.688 341.685 310.45 341.685 311.388C341.685 312.495 341.312 313.436 340.568 314.209C339.824 314.977 338.772 315.36 337.413 315.36C336.188 315.36 335.151 315.029 334.302 314.367C333.458 313.699 333.036 312.732 333.036 311.467C333.036 310.723 333.218 310.081 333.581 309.542C333.944 308.997 334.483 308.581 335.198 308.294ZM344.031 304.154C344.055 303.498 344.169 303.018 344.374 302.713C344.743 302.174 345.455 301.904 346.51 301.904C346.609 301.904 346.712 301.907 346.817 301.913C346.923 301.919 347.043 301.928 347.178 301.939V303.381C347.014 303.369 346.894 303.363 346.817 303.363C346.747 303.357 346.68 303.354 346.615 303.354C346.135 303.354 345.848 303.48 345.754 303.732C345.66 303.979 345.613 304.611 345.613 305.631H347.178V306.879H345.596V315H344.031V306.879H342.722V305.631H344.031V304.154ZM349.876 311.959C349.923 312.832 350.26 313.436 350.887 313.77C351.209 313.945 351.572 314.033 351.977 314.033C352.732 314.033 353.377 313.72 353.91 313.093C354.443 312.46 354.821 311.18 355.044 309.252C354.692 309.809 354.256 310.201 353.734 310.43C353.219 310.652 352.662 310.764 352.064 310.764C350.852 310.764 349.891 310.386 349.182 309.63C348.479 308.874 348.127 307.901 348.127 306.712C348.127 305.569 348.476 304.564 349.173 303.697C349.87 302.83 350.898 302.396 352.258 302.396C354.092 302.396 355.357 303.223 356.055 304.875C356.441 305.783 356.635 306.92 356.635 308.285C356.635 309.826 356.403 311.191 355.94 312.381C355.173 314.361 353.872 315.352 352.038 315.352C350.808 315.352 349.873 315.029 349.234 314.385C348.596 313.74 348.276 312.932 348.276 311.959H349.876ZM352.275 309.375C352.902 309.375 353.474 309.17 353.989 308.76C354.511 308.344 354.771 307.62 354.771 306.589C354.771 305.663 354.537 304.975 354.068 304.523C353.605 304.066 353.014 303.838 352.293 303.838C351.52 303.838 350.904 304.099 350.447 304.62C349.996 305.136 349.771 305.827 349.771 306.694C349.771 307.515 349.97 308.168 350.368 308.654C350.767 309.135 351.402 309.375 352.275 309.375ZM362.374 302.414C364.003 302.414 365.181 303.085 365.907 304.427C366.47 305.464 366.751 306.885 366.751 308.689C366.751 310.4 366.496 311.815 365.986 312.935C365.248 314.54 364.041 315.343 362.365 315.343C360.854 315.343 359.729 314.687 358.99 313.374C358.375 312.278 358.067 310.808 358.067 308.962C358.067 307.532 358.252 306.305 358.621 305.279C359.312 303.369 360.563 302.414 362.374 302.414ZM362.356 313.901C363.177 313.901 363.83 313.538 364.316 312.812C364.803 312.085 365.046 310.731 365.046 308.751C365.046 307.321 364.87 306.146 364.519 305.227C364.167 304.301 363.484 303.838 362.471 303.838C361.539 303.838 360.856 304.277 360.423 305.156C359.995 306.029 359.781 307.318 359.781 309.023C359.781 310.307 359.919 311.338 360.194 312.117C360.616 313.307 361.337 313.901 362.356 313.901ZM369.897 312.495C369.897 312.952 370.064 313.312 370.398 313.576C370.732 313.84 371.128 313.972 371.585 313.972C372.142 313.972 372.681 313.843 373.202 313.585C374.081 313.157 374.521 312.457 374.521 311.484V310.21C374.327 310.333 374.078 310.436 373.773 310.518C373.469 310.6 373.17 310.658 372.877 310.693L371.919 310.816C371.345 310.893 370.914 311.013 370.627 311.177C370.141 311.452 369.897 311.892 369.897 312.495ZM373.729 309.296C374.093 309.249 374.336 309.097 374.459 308.839C374.529 308.698 374.564 308.496 374.564 308.232C374.564 307.693 374.371 307.304 373.984 307.063C373.604 306.817 373.056 306.694 372.341 306.694C371.515 306.694 370.929 306.917 370.583 307.362C370.39 307.608 370.264 307.975 370.205 308.461H368.729C368.758 307.301 369.133 306.495 369.854 306.044C370.58 305.587 371.421 305.358 372.376 305.358C373.483 305.358 374.383 305.569 375.074 305.991C375.76 306.413 376.103 307.069 376.103 307.96V313.383C376.103 313.547 376.135 313.679 376.199 313.778C376.27 313.878 376.413 313.928 376.63 313.928C376.7 313.928 376.779 313.925 376.867 313.919C376.955 313.907 377.049 313.893 377.148 313.875V315.044C376.902 315.114 376.715 315.158 376.586 315.176C376.457 315.193 376.281 315.202 376.059 315.202C375.514 315.202 375.118 315.009 374.872 314.622C374.743 314.417 374.652 314.127 374.6 313.752C374.277 314.174 373.814 314.54 373.211 314.851C372.607 315.161 371.942 315.316 371.216 315.316C370.343 315.316 369.628 315.053 369.071 314.525C368.521 313.992 368.245 313.327 368.245 312.53C368.245 311.657 368.518 310.98 369.062 310.5C369.607 310.02 370.322 309.724 371.207 309.612L373.729 309.296ZM382.809 302.361C384.215 302.361 385.193 302.728 385.744 303.46C386.301 304.187 386.579 304.937 386.579 305.71H385.015C384.921 305.212 384.771 304.822 384.566 304.541C384.186 304.014 383.608 303.75 382.835 303.75C381.95 303.75 381.247 304.16 380.726 304.98C380.204 305.795 379.914 306.964 379.855 308.487C380.219 307.954 380.676 307.556 381.227 307.292C381.73 307.058 382.293 306.94 382.914 306.94C383.969 306.94 384.889 307.277 385.674 307.951C386.459 308.625 386.852 309.63 386.852 310.966C386.852 312.108 386.479 313.122 385.735 314.007C384.991 314.886 383.931 315.325 382.554 315.325C381.376 315.325 380.359 314.88 379.504 313.989C378.648 313.093 378.221 311.587 378.221 309.472C378.221 307.907 378.411 306.58 378.792 305.49C379.524 303.404 380.863 302.361 382.809 302.361ZM382.694 313.919C383.526 313.919 384.147 313.641 384.558 313.084C384.974 312.521 385.182 311.859 385.182 311.098C385.182 310.453 384.997 309.841 384.628 309.261C384.259 308.675 383.588 308.382 382.615 308.382C381.936 308.382 381.338 308.607 380.822 309.059C380.312 309.51 380.058 310.189 380.058 311.098C380.058 311.895 380.289 312.565 380.752 313.11C381.221 313.649 381.868 313.919 382.694 313.919Z" fill="#8F90A6"/>
<rect width="121" height="122" rx="20" fill="#ECC44A"/>
<path d="M26.7148 138.069H28.7627L29.5889 135.046H27.5498L27.8223 134.026H29.8613L30.9072 130.089H32.2168L31.1533 134.026H33.0957L34.1768 130.089H35.4688L34.4053 134.026H36.4443L36.1719 135.046H34.1328L33.2979 138.069H35.3457L35.0732 139.089H33.0518L31.9707 143H30.6787L31.7422 139.089H29.7822L28.7363 143H27.4268L28.4902 139.089H26.4512L26.7148 138.069ZM31.9883 138.069L32.8232 135.046H30.8809L30.0723 138.069H31.9883ZM41.5508 133.376C42.2188 133.376 42.8662 133.534 43.4932 133.851C44.1201 134.161 44.5977 134.565 44.9258 135.063C45.2422 135.538 45.4531 136.092 45.5586 136.725C45.6523 137.158 45.6992 137.85 45.6992 138.799H38.7998C38.8291 139.754 39.0547 140.521 39.4766 141.102C39.8984 141.676 40.5518 141.963 41.4365 141.963C42.2627 141.963 42.9219 141.69 43.4141 141.146C43.6953 140.829 43.8945 140.463 44.0117 140.047H45.5674C45.5264 140.393 45.3887 140.779 45.1543 141.207C44.9258 141.629 44.668 141.975 44.3809 142.244C43.9004 142.713 43.3057 143.029 42.5967 143.193C42.2158 143.287 41.7852 143.334 41.3047 143.334C40.1328 143.334 39.1396 142.909 38.3252 142.06C37.5107 141.204 37.1035 140.009 37.1035 138.474C37.1035 136.962 37.5137 135.734 38.334 134.791C39.1543 133.848 40.2266 133.376 41.5508 133.376ZM44.0732 137.542C44.0088 136.856 43.8594 136.309 43.625 135.898C43.1914 135.137 42.4678 134.756 41.4541 134.756C40.7275 134.756 40.1182 135.02 39.626 135.547C39.1338 136.068 38.873 136.733 38.8438 137.542H44.0732ZM51.2803 133.314C52.3408 133.314 53.2021 133.572 53.8643 134.088C54.5322 134.604 54.9336 135.491 55.0684 136.751H53.5303C53.4365 136.171 53.2227 135.69 52.8887 135.31C52.5547 134.923 52.0186 134.729 51.2803 134.729C50.2725 134.729 49.5518 135.222 49.1182 136.206C48.8369 136.845 48.6963 137.633 48.6963 138.57C48.6963 139.514 48.8955 140.308 49.2939 140.952C49.6924 141.597 50.3193 141.919 51.1748 141.919C51.8311 141.919 52.3496 141.72 52.7305 141.321C53.1172 140.917 53.3838 140.366 53.5303 139.669H55.0684C54.8926 140.917 54.4531 141.831 53.75 142.411C53.0469 142.985 52.1475 143.272 51.0518 143.272C49.8213 143.272 48.8398 142.824 48.1074 141.928C47.375 141.025 47.0088 139.9 47.0088 138.553C47.0088 136.9 47.4102 135.614 48.2129 134.694C49.0156 133.774 50.0381 133.314 51.2803 133.314ZM60.2803 133.314C61.3408 133.314 62.2021 133.572 62.8643 134.088C63.5322 134.604 63.9336 135.491 64.0684 136.751H62.5303C62.4365 136.171 62.2227 135.69 61.8887 135.31C61.5547 134.923 61.0186 134.729 60.2803 134.729C59.2725 134.729 58.5518 135.222 58.1182 136.206C57.8369 136.845 57.6963 137.633 57.6963 138.57C57.6963 139.514 57.8955 140.308 58.2939 140.952C58.6924 141.597 59.3193 141.919 60.1748 141.919C60.8311 141.919 61.3496 141.72 61.7305 141.321C62.1172 140.917 62.3838 140.366 62.5303 139.669H64.0684C63.8926 140.917 63.4531 141.831 62.75 142.411C62.0469 142.985 61.1475 143.272 60.0518 143.272C58.8213 143.272 57.8398 142.824 57.1074 141.928C56.375 141.025 56.0088 139.9 56.0088 138.553C56.0088 136.9 56.4102 135.614 57.2129 134.694C58.0156 133.774 59.0381 133.314 60.2803 133.314ZM70.4404 138.544V132.84L66.4062 138.544H70.4404ZM70.4668 143V139.924H64.9473V138.377L70.7129 130.379H72.0488V138.544H73.9033V139.924H72.0488V143H70.4668ZM80.46 138.544V132.84L76.4258 138.544H80.46ZM80.4863 143V139.924H74.9668V138.377L80.7324 130.379H82.0684V138.544H83.9229V139.924H82.0684V143H80.4863ZM86.9023 140.495C86.9023 140.952 87.0693 141.312 87.4033 141.576C87.7373 141.84 88.1328 141.972 88.5898 141.972C89.1465 141.972 89.6855 141.843 90.207 141.585C91.0859 141.157 91.5254 140.457 91.5254 139.484V138.21C91.332 138.333 91.083 138.436 90.7783 138.518C90.4736 138.6 90.1748 138.658 89.8818 138.693L88.9238 138.816C88.3496 138.893 87.9189 139.013 87.6318 139.177C87.1455 139.452 86.9023 139.892 86.9023 140.495ZM90.7344 137.296C91.0977 137.249 91.3408 137.097 91.4639 136.839C91.5342 136.698 91.5693 136.496 91.5693 136.232C91.5693 135.693 91.376 135.304 90.9893 135.063C90.6084 134.817 90.0605 134.694 89.3457 134.694C88.5195 134.694 87.9336 134.917 87.5879 135.362C87.3945 135.608 87.2686 135.975 87.21 136.461H85.7334C85.7627 135.301 86.1377 134.495 86.8584 134.044C87.585 133.587 88.4258 133.358 89.3809 133.358C90.4883 133.358 91.3877 133.569 92.0791 133.991C92.7646 134.413 93.1074 135.069 93.1074 135.96V141.383C93.1074 141.547 93.1396 141.679 93.2041 141.778C93.2744 141.878 93.418 141.928 93.6348 141.928C93.7051 141.928 93.7842 141.925 93.8721 141.919C93.96 141.907 94.0537 141.893 94.1533 141.875V143.044C93.9072 143.114 93.7197 143.158 93.5908 143.176C93.4619 143.193 93.2861 143.202 93.0635 143.202C92.5186 143.202 92.123 143.009 91.877 142.622C91.748 142.417 91.6572 142.127 91.6045 141.752C91.2822 142.174 90.8193 142.54 90.2158 142.851C89.6123 143.161 88.9473 143.316 88.2207 143.316C87.3477 143.316 86.6328 143.053 86.0762 142.525C85.5254 141.992 85.25 141.327 85.25 140.53C85.25 139.657 85.5225 138.98 86.0674 138.5C86.6123 138.02 87.3271 137.724 88.2119 137.612L90.7344 137.296Z" fill="#ECC44A"/>
<rect y="171" width="121" height="122" rx="20" fill="#0192D5"/>
<path d="M25.6953 309.069H27.7432L28.5693 306.046H26.5303L26.8027 305.026H28.8418L29.8877 301.089H31.1973L30.1338 305.026H32.0762L33.1572 301.089H34.4492L33.3857 305.026H35.4248L35.1523 306.046H33.1133L32.2783 309.069H34.3262L34.0537 310.089H32.0322L30.9512 314H29.6592L30.7227 310.089H28.7627L27.7168 314H26.4072L27.4707 310.089H25.4316L25.6953 309.069ZM30.9688 309.069L31.8037 306.046H29.8613L29.0527 309.069H30.9688ZM40.3203 301.414C41.9492 301.414 43.127 302.085 43.8535 303.427C44.416 304.464 44.6973 305.885 44.6973 307.689C44.6973 309.4 44.4424 310.815 43.9326 311.935C43.1943 313.54 41.9873 314.343 40.3115 314.343C38.7998 314.343 37.6748 313.687 36.9365 312.374C36.3213 311.278 36.0137 309.808 36.0137 307.962C36.0137 306.532 36.1982 305.305 36.5674 304.279C37.2588 302.369 38.5098 301.414 40.3203 301.414ZM40.3027 312.901C41.123 312.901 41.7764 312.538 42.2627 311.812C42.749 311.085 42.9922 309.731 42.9922 307.751C42.9922 306.321 42.8164 305.146 42.4648 304.227C42.1133 303.301 41.4307 302.838 40.417 302.838C39.4854 302.838 38.8027 303.277 38.3691 304.156C37.9414 305.029 37.7275 306.318 37.7275 308.023C37.7275 309.307 37.8652 310.338 38.1406 311.117C38.5625 312.307 39.2832 312.901 40.3027 312.901ZM47.1934 305.088V303.875C48.3359 303.764 49.1328 303.579 49.584 303.321C50.0352 303.058 50.3721 302.439 50.5947 301.467H51.8428V314H50.1553V305.088H47.1934ZM57.8809 310.959C57.9277 311.832 58.2646 312.436 58.8916 312.77C59.2139 312.945 59.5771 313.033 59.9814 313.033C60.7373 313.033 61.3818 312.72 61.915 312.093C62.4482 311.46 62.8262 310.18 63.0488 308.252C62.6973 308.809 62.2607 309.201 61.7393 309.43C61.2236 309.652 60.667 309.764 60.0693 309.764C58.8564 309.764 57.8955 309.386 57.1865 308.63C56.4834 307.874 56.1318 306.901 56.1318 305.712C56.1318 304.569 56.4805 303.564 57.1777 302.697C57.875 301.83 58.9033 301.396 60.2627 301.396C62.0967 301.396 63.3623 302.223 64.0596 303.875C64.4463 304.783 64.6396 305.92 64.6396 307.285C64.6396 308.826 64.4082 310.191 63.9453 311.381C63.1777 313.361 61.877 314.352 60.043 314.352C58.8125 314.352 57.8779 314.029 57.2393 313.385C56.6006 312.74 56.2812 311.932 56.2812 310.959H57.8809ZM60.2803 308.375C60.9072 308.375 61.4785 308.17 61.9941 307.76C62.5156 307.344 62.7764 306.62 62.7764 305.589C62.7764 304.663 62.542 303.975 62.0732 303.523C61.6104 303.066 61.0186 302.838 60.2979 302.838C59.5244 302.838 58.9092 303.099 58.4521 303.62C58.001 304.136 57.7754 304.827 57.7754 305.694C57.7754 306.515 57.9746 307.168 58.373 307.654C58.7715 308.135 59.4072 308.375 60.2803 308.375ZM66.0723 314C66.1309 312.916 66.3535 311.973 66.7402 311.17C67.1328 310.367 67.8945 309.638 69.0254 308.981L70.7129 308.006C71.4688 307.566 71.999 307.191 72.3037 306.881C72.7842 306.395 73.0244 305.838 73.0244 305.211C73.0244 304.479 72.8047 303.898 72.3652 303.471C71.9258 303.037 71.3398 302.82 70.6074 302.82C69.5234 302.82 68.7734 303.23 68.3574 304.051C68.1348 304.49 68.0117 305.1 67.9883 305.879H66.3799C66.3975 304.783 66.5996 303.89 66.9863 303.198C67.6719 301.979 68.8818 301.37 70.6162 301.37C72.0576 301.37 73.1094 301.76 73.7715 302.539C74.4395 303.318 74.7734 304.186 74.7734 305.141C74.7734 306.148 74.4189 307.01 73.71 307.725C73.2998 308.141 72.5645 308.645 71.5039 309.236L70.2998 309.904C69.7256 310.221 69.2744 310.522 68.9463 310.81C68.3604 311.319 67.9912 311.885 67.8389 312.506H74.7119V314H66.0723ZM77.6914 309.403C77.6914 310.411 77.9053 311.255 78.333 311.935C78.7607 312.614 79.4463 312.954 80.3896 312.954C81.1221 312.954 81.7227 312.641 82.1914 312.014C82.666 311.381 82.9033 310.476 82.9033 309.298C82.9033 308.108 82.6602 307.229 82.1738 306.661C81.6875 306.087 81.0869 305.8 80.3721 305.8C79.5752 305.8 78.9277 306.104 78.4297 306.714C77.9375 307.323 77.6914 308.22 77.6914 309.403ZM80.0732 304.42C80.7939 304.42 81.3975 304.572 81.8838 304.877C82.165 305.053 82.4844 305.36 82.8418 305.8V301.045H84.3623V314H82.9385V312.69C82.5693 313.271 82.1328 313.689 81.6289 313.947C81.125 314.205 80.5479 314.334 79.8975 314.334C78.8486 314.334 77.9404 313.895 77.1729 313.016C76.4053 312.131 76.0215 310.956 76.0215 309.491C76.0215 308.12 76.3701 306.934 77.0674 305.932C77.7705 304.924 78.7725 304.42 80.0732 304.42ZM87.7725 310.792C87.8779 311.694 88.2969 312.318 89.0293 312.664C89.4043 312.84 89.8379 312.928 90.3301 312.928C91.2676 312.928 91.9619 312.629 92.4131 312.031C92.8643 311.434 93.0898 310.771 93.0898 310.045C93.0898 309.166 92.8203 308.486 92.2812 308.006C91.748 307.525 91.1064 307.285 90.3564 307.285C89.8115 307.285 89.3428 307.391 88.9502 307.602C88.5635 307.812 88.2324 308.105 87.957 308.48L86.5859 308.401L87.5439 301.625H94.083V303.154H88.7305L88.1943 306.652C88.4873 306.43 88.7656 306.263 89.0293 306.151C89.498 305.958 90.04 305.861 90.6553 305.861C91.8096 305.861 92.7881 306.233 93.5908 306.978C94.3936 307.722 94.7949 308.665 94.7949 309.808C94.7949 310.997 94.4258 312.046 93.6875 312.954C92.9551 313.862 91.7832 314.316 90.1719 314.316C89.1465 314.316 88.2383 314.029 87.4473 313.455C86.6621 312.875 86.2227 311.987 86.1289 310.792H87.7725Z" fill="#0192D5"/>
<rect x="294" width="121" height="122" rx="20" fill="#555770"/>
<path d="M319.695 138.069H321.743L322.569 135.046H320.53L320.803 134.026H322.842L323.888 130.089H325.197L324.134 134.026H326.076L327.157 130.089H328.449L327.386 134.026H329.425L329.152 135.046H327.113L326.278 138.069H328.326L328.054 139.089H326.032L324.951 143H323.659L324.723 139.089H322.763L321.717 143H320.407L321.471 139.089H319.432L319.695 138.069ZM324.969 138.069L325.804 135.046H323.861L323.053 138.069H324.969ZM331.675 139.792C331.78 140.694 332.199 141.318 332.932 141.664C333.307 141.84 333.74 141.928 334.232 141.928C335.17 141.928 335.864 141.629 336.315 141.031C336.767 140.434 336.992 139.771 336.992 139.045C336.992 138.166 336.723 137.486 336.184 137.006C335.65 136.525 335.009 136.285 334.259 136.285C333.714 136.285 333.245 136.391 332.853 136.602C332.466 136.812 332.135 137.105 331.859 137.48L330.488 137.401L331.446 130.625H337.985V132.154H332.633L332.097 135.652C332.39 135.43 332.668 135.263 332.932 135.151C333.4 134.958 333.942 134.861 334.558 134.861C335.712 134.861 336.69 135.233 337.493 135.978C338.296 136.722 338.697 137.665 338.697 138.808C338.697 139.997 338.328 141.046 337.59 141.954C336.857 142.862 335.686 143.316 334.074 143.316C333.049 143.316 332.141 143.029 331.35 142.455C330.564 141.875 330.125 140.987 330.031 139.792H331.675ZM341.694 139.792C341.8 140.694 342.219 141.318 342.951 141.664C343.326 141.84 343.76 141.928 344.252 141.928C345.189 141.928 345.884 141.629 346.335 141.031C346.786 140.434 347.012 139.771 347.012 139.045C347.012 138.166 346.742 137.486 346.203 137.006C345.67 136.525 345.028 136.285 344.278 136.285C343.733 136.285 343.265 136.391 342.872 136.602C342.485 136.812 342.154 137.105 341.879 137.48L340.508 137.401L341.466 130.625H348.005V132.154H342.652L342.116 135.652C342.409 135.43 342.688 135.263 342.951 135.151C343.42 134.958 343.962 134.861 344.577 134.861C345.731 134.861 346.71 135.233 347.513 135.978C348.315 136.722 348.717 137.665 348.717 138.808C348.717 139.997 348.348 141.046 347.609 141.954C346.877 142.862 345.705 143.316 344.094 143.316C343.068 143.316 342.16 143.029 341.369 142.455C340.584 141.875 340.145 140.987 340.051 139.792H341.694ZM351.714 139.792C351.819 140.694 352.238 141.318 352.971 141.664C353.346 141.84 353.779 141.928 354.271 141.928C355.209 141.928 355.903 141.629 356.354 141.031C356.806 140.434 357.031 139.771 357.031 139.045C357.031 138.166 356.762 137.486 356.223 137.006C355.689 136.525 355.048 136.285 354.298 136.285C353.753 136.285 353.284 136.391 352.892 136.602C352.505 136.812 352.174 137.105 351.898 137.48L350.527 137.401L351.485 130.625H358.024V132.154H352.672L352.136 135.652C352.429 135.43 352.707 135.263 352.971 135.151C353.439 134.958 353.981 134.861 354.597 134.861C355.751 134.861 356.729 135.233 357.532 135.978C358.335 136.722 358.736 137.665 358.736 138.808C358.736 139.997 358.367 141.046 357.629 141.954C356.896 142.862 355.725 143.316 354.113 143.316C353.088 143.316 352.18 143.029 351.389 142.455C350.604 141.875 350.164 140.987 350.07 139.792H351.714ZM368.923 130.625V132.005C368.519 132.397 367.979 133.08 367.306 134.053C366.638 135.025 366.046 136.074 365.53 137.199C365.021 138.295 364.634 139.294 364.37 140.196C364.2 140.776 363.98 141.711 363.711 143H361.962C362.36 140.598 363.239 138.207 364.599 135.828C365.401 134.434 366.245 133.229 367.13 132.216H360.169V130.625H368.923ZM378.942 130.625V132.005C378.538 132.397 377.999 133.08 377.325 134.053C376.657 135.025 376.065 136.074 375.55 137.199C375.04 138.295 374.653 139.294 374.39 140.196C374.22 140.776 374 141.711 373.73 143H371.981C372.38 140.598 373.259 138.207 374.618 135.828C375.421 134.434 376.265 133.229 377.149 132.216H370.188V130.625H378.942ZM384.418 130.414C386.047 130.414 387.225 131.085 387.951 132.427C388.514 133.464 388.795 134.885 388.795 136.689C388.795 138.4 388.54 139.815 388.03 140.935C387.292 142.54 386.085 143.343 384.409 143.343C382.897 143.343 381.772 142.687 381.034 141.374C380.419 140.278 380.111 138.808 380.111 136.962C380.111 135.532 380.296 134.305 380.665 133.279C381.356 131.369 382.607 130.414 384.418 130.414ZM384.4 141.901C385.221 141.901 385.874 141.538 386.36 140.812C386.847 140.085 387.09 138.731 387.09 136.751C387.09 135.321 386.914 134.146 386.562 133.227C386.211 132.301 385.528 131.838 384.515 131.838C383.583 131.838 382.9 132.277 382.467 133.156C382.039 134.029 381.825 135.318 381.825 137.023C381.825 138.307 381.963 139.338 382.238 140.117C382.66 141.307 383.381 141.901 384.4 141.901Z" fill="#555770"/>
</svg>
